# xmcd
#
# Track frame offsets: 
#        150
#        17863
#        35418
#        51903
#        70280
#        86562
#        105104
#        121640
#        138637
#        156354
#
# Disc length: 2316 seconds
#
# Revision: 0
# Processed by: cddbd v1.5.2PL0 Copyright (c) Steve Scherf et al.
# Submitted via: ExactAudioCopy v0.99pb4
#
DISCID=7e090a0a
DTITLE=เฉลิมพล มาลาคำ - ผู้ชายเลขสี่
DYEAR=2008
DGENRE=Country
TTITLE0=อยากมีไฟท์ล้างตา
TTITLE1=ผู้ชายเลขสี่
TTITLE2=ให้อ้ายสิได้บ่
TTITLE3=ไม่ให้อภัยตัวเอง
TTITLE4=ไปดีเถิดน้อง
TTITLE5=บักหล่าลูกพ่อ
TTITLE6=น้ำมูลไม่ไหลกลับ
TTITLE7=มาเฟีย
TTITLE8=แขกร่วมอวยพร
TTITLE9=อย่าอายฟ้าดิน
EXTD=
EXTT0=
EXTT1=
EXTT2=
EXTT3=
EXTT4=
EXTT5=
EXTT6=
EXTT7=
EXTT8=
EXTT9=
PLAYORDER=
